<?xml version="1.0" encoding="UTF-8" standalone="no"?>
<!-- Created with Inkscape (http://www.inkscape.org/) -->

<svg
   version="1.1"
   id="svg8953"
   width="800"
   height="800"
   viewBox="0 0 800 800"
   sodipodi:docname="man-under-the-tree-publicdomainvectors.org.svg"
   inkscape:version="1.2 (dc2aedaf03, 2022-05-15)"
   xmlns:inkscape="http://www.inkscape.org/namespaces/inkscape"
   xmlns:sodipodi="http://sodipodi.sourceforge.net/DTD/sodipodi-0.dtd"
   xmlns="http://www.w3.org/2000/svg"
   xmlns:svg="http://www.w3.org/2000/svg">
  <defs
     id="defs8957">
    <clipPath
       clipPathUnits="userSpaceOnUse"
       id="clipPath8969">
      <path
         d="M 0,600 H 600 V 0 H 0 Z"
         id="path8967" />
    </clipPath>
  </defs>
  <sodipodi:namedview
     id="namedview8955"
     pagecolor="#ffffff"
     bordercolor="#000000"
     borderopacity="0.25"
     inkscape:showpageshadow="2"
     inkscape:pageopacity="0.0"
     inkscape:pagecheckerboard="0"
     inkscape:deskcolor="#d1d1d1"
     showgrid="false"
     inkscape:zoom="1.04625"
     inkscape:cx="400"
     inkscape:cy="400.4779"
     inkscape:window-width="1920"
     inkscape:window-height="1017"
     inkscape:window-x="-8"
     inkscape:window-y="-8"
     inkscape:window-maximized="1"
     inkscape:current-layer="g8961">
    <inkscape:page
       x="0"
       y="0"
       id="page8959"
       width="800"
       height="800" />
  </sodipodi:namedview>
  <g
     id="g8961"
     inkscape:groupmode="layer"
     inkscape:label="Page 1"
     transform="matrix(1.3333333,0,0,-1.3333333,0,800)">
    <g
       id="g8963">
      <g
         id="g8965"
         clip-path="url(#clipPath8969)">
        <g
           id="g8971"
           transform="translate(339.623,117.4229)">
          <path
             d="m 0,0 c 90.174,0 163.72,9.982 163.72,22.223 0,12.24 -73.546,22.222 -163.72,22.222 -90.174,0 -163.719,-9.982 -163.719,-22.222 C -163.719,9.982 -90.174,0 0,0"
             style="fill:#cee9b2;fill-opacity:1;fill-rule:evenodd;stroke:none"
             id="path8973" />
        </g>
        <g
           id="g8975"
           transform="translate(247.624,329.6636)">
          <path
             d="M 0,0 C 50.15,-72.578 35.405,-132.492 -13.625,-185.714 H 114.266 C 38.68,-146.466 38.68,-75.607 96.125,19.274 L 77.534,15.547 c -0.155,-1.754 -0.344,-3.536 -0.568,-5.343 -3.195,-25.797 -12.18,-46.711 -20.069,-46.711 -7.838,0 -11.645,20.637 -8.562,46.197 L 35.668,7.151 c 2.476,-5.904 4.544,-13.939 5.642,-22.797 2.245,-18.124 -0.43,-32.818 -5.972,-32.818 -5.545,0 -11.858,14.694 -14.102,32.818 -0.922,7.447 -1.013,14.311 -0.417,19.819 z"
             style="fill:#602e15;fill-opacity:1;fill-rule:evenodd;stroke:none"
             id="path8977" />
        </g>
        <g
           id="g8979"
           transform="translate(317.8994,143.9492)">
          <path
             d="M 0,0 H 43.99 C -30.76,38.814 -31.578,108.549 23.975,201.856 17.419,198.741 11.246,194.238 5.601,188.555 1.761,166.257 -6.255,149.207 -13.378,149.207 c -1.547,0 -2.936,0.808 -4.147,2.293 -6.862,-17.568 -10.82,-38.229 -10.82,-60.344 C -28.345,54.127 -17.252,21.167 0,0"
             style="fill:#442515;fill-opacity:1;fill-rule:evenodd;stroke:none"
             id="path8981" />
        </g>
        <g
           id="g8983"
           transform="translate(337.7334,332.8467)">
          <path
             d="m 0,0 c 16.557,2.697 26.928,-16.523 53.969,-6.361 16.029,6.023 28.638,-1.682 49.886,-5.962 34.298,-6.907 65.023,-12.066 58.284,25.527 -7.036,39.239 9.324,41.426 -29.026,75.233 -13.925,12.275 -26.745,26.425 -37.421,40.427 -15.468,20.286 -52.648,29.969 -77.462,28.507 -42.862,-2.526 -96.598,30.436 -106.226,31.202 -43.464,3.459 -69.695,-65.226 -77.849,-82.203 -10.935,-22.768 -68.032,-43.908 -68.546,-64.037 -0.578,-22.663 -21.908,-56.212 5.727,-85.105 29.019,-30.341 52.641,2.859 90.341,10.339 32.762,6.5 26.897,-4.099 62.741,2.048 15.892,2.725 19.709,20.542 63.39,27.444 C -8.721,-2.392 -2.089,-0.34 0,0"
             style="fill:#448733;fill-opacity:1;fill-rule:evenodd;stroke:none"
             id="path8985" />
        </g>
        <g
           id="g8987"
           transform="translate(343.5762,334.7305)">
          <path
             d="M 0,0 C -0.771,-8.477 2.824,-14.208 11.343,-16.851 11.418,-7.599 7.486,-2.123 0,0"
             style="fill:#448733;fill-opacity:1;fill-rule:evenodd;stroke:none"
             id="path8989" />
        </g>
        <g
           id="g8991"
           transform="translate(344.5498,334.7212)">
          <path
             d="M 0,0 C -5.851,-3.811 -7.714,-9.042 -5.085,-15.87 0.912,-11.214 2.439,-5.899 0,0"
             style="fill:#448733;fill-opacity:1;fill-rule:evenodd;stroke:none"
             id="path8993" />
        </g>
        <g
           id="g8995"
           transform="translate(101.7075,318.7979)">
          <path
             d="M 0,0 C -10.824,3.219 -19.22,0.037 -24.882,-10.352 -12.867,-12.867 -4.718,-9.184 0,0"
             style="fill:#448733;fill-opacity:1;fill-rule:evenodd;stroke:none"
             id="path8997" />
        </g>
        <g
           id="g8999"
           transform="translate(101.4424,317.5342)">
          <path
             d="M 0,0 C -3.43,8.605 -9.748,12.395 -19.316,10.758 -14.826,1.742 -8.312,-1.633 0,0"
             style="fill:#448733;fill-opacity:1;fill-rule:evenodd;stroke:none"
             id="path9001" />
        </g>
        <g
           id="g9003"
           transform="translate(100.0723,318.0288)">
          <path
             d="M 0,0 C -8.384,-7.563 -10.042,-16.387 -4.123,-26.63 4.282,-17.685 5.383,-8.81 0,0"
             style="fill:#448733;fill-opacity:1;fill-rule:evenodd;stroke:none"
             id="path9005" />
        </g>
        <g
           id="g9007"
           transform="translate(483.3857,317.4692)">
          <path
             d="M 0,0 C 0.773,-8.476 -2.824,-14.207 -11.342,-16.85 -11.416,-7.598 -7.486,-2.122 0,0"
             style="fill:#448733;fill-opacity:1;fill-rule:evenodd;stroke:none"
             id="path9009" />
        </g>
        <g
           id="g9011"
           transform="translate(482.415,317.4604)">
          <path
             d="M 0,0 C 5.849,-3.811 7.712,-9.042 5.082,-15.87 -0.913,-11.214 -2.44,-5.899 0,0"
             style="fill:#448733;fill-opacity:1;fill-rule:evenodd;stroke:none"
             id="path9013" />
        </g>
        <g
           id="g9015"
           transform="translate(475.7393,414.3306)">
          <path
             d="M 0,0 C 5.478,6.513 12.081,7.993 19.954,3.8 13.433,-2.765 6.775,-3.825 0,0"
             style="fill:#448733;fill-opacity:1;fill-rule:evenodd;stroke:none"
             id="path9017" />
        </g>
        <g
           id="g9019"
           transform="translate(476.4277,413.6455)">
          <path
             d="M 0,0 C -1.406,6.839 0.998,11.844 7.699,14.781 8.611,7.244 5.91,2.418 0,0"
             style="fill:#448733;fill-opacity:1;fill-rule:evenodd;stroke:none"
             id="path9021" />
        </g>
        <g
           id="g9023"
           transform="translate(337.9863,489.2012)">
          <path
             d="M 0,0 C -0.544,8.494 3.206,14.127 11.792,16.54 11.616,7.288 7.54,1.921 0,0"
             style="fill:#448733;fill-opacity:1;fill-rule:evenodd;stroke:none"
             id="path9025" />
        </g>
        <g
           id="g9027"
           transform="translate(338.957,489.1831)">
          <path
             d="M 0,0 C -5.745,3.969 -7.467,9.248 -4.653,16.003 1.214,11.187 2.599,5.833 0,0"
             style="fill:#448733;fill-opacity:1;fill-rule:evenodd;stroke:none"
             id="path9029" />
        </g>
        <g
           id="g9031"
           transform="translate(202.0889,486.0679)">
          <path
             d="M 0,0 C -2.961,7.979 -8.679,11.599 -17.504,10.308 -13.579,1.928 -7.669,-1.316 0,0"
             style="fill:#448733;fill-opacity:1;fill-rule:evenodd;stroke:none"
             id="path9033" />
        </g>
        <g
           id="g9035"
           transform="translate(201.208,485.6553)">
          <path
             d="M 0,0 C 3.632,5.964 3.055,11.486 -2.263,16.512 -5.663,9.724 -4.746,4.271 0,0"
             style="fill:#448733;fill-opacity:1;fill-rule:evenodd;stroke:none"
             id="path9037" />
        </g>
        <g
           id="g9039"
           transform="translate(120.8955,391.5513)">
          <path
             d="M 0,0 C -3.382,7.81 -9.286,11.12 -18.028,9.358 -13.662,1.201 -7.588,-1.723 0,0"
             style="fill:#448733;fill-opacity:1;fill-rule:evenodd;stroke:none"
             id="path9041" />
        </g>
        <g
           id="g9043"
           transform="translate(120.0386,391.0928)">
          <path
             d="M 0,0 C 3.308,6.149 2.438,11.633 -3.142,16.366 -6.174,9.407 -4.968,4.01 0,0"
             style="fill:#448733;fill-opacity:1;fill-rule:evenodd;stroke:none"
             id="path9045" />
        </g>
        <g
           id="g9047"
           transform="translate(243.3564,305.6147)">
          <path
             d="M 0,0 C -5.266,-6.788 -5.323,-13.621 0.484,-20.499 5.579,-12.671 5.213,-5.875 0,0"
             style="fill:#448733;fill-opacity:1;fill-rule:evenodd;stroke:none"
             id="path9049" />
        </g>
        <g
           id="g9051"
           transform="translate(244.1797,305.0806)">
          <path
             d="M 0,0 C -7.049,-0.062 -11.478,-3.499 -12.953,-10.736 -5.322,-10.036 -1.134,-6.345 0,0"
             style="fill:#448733;fill-opacity:1;fill-rule:evenodd;stroke:none"
             id="path9053" />
        </g>
        <g
           id="g9055"
           transform="translate(243.4512,304.2446)">
          <path
             d="M 0,0 C 3.054,-8.031 8.855,-11.639 17.752,-10.264 13.723,-1.838 7.731,1.388 0,0"
             style="fill:#448733;fill-opacity:1;fill-rule:evenodd;stroke:none"
             id="path9057" />
        </g>
        <g
           id="g9059"
           transform="translate(418.5078,472.1055)">
          <path
             d="M 0,0 C 7.153,4.757 9.385,11.214 6.071,19.586 -1.252,13.788 -3.069,7.23 0,0"
             style="fill:#448733;fill-opacity:1;fill-rule:evenodd;stroke:none"
             id="path9061" />
        </g>
        <g
           id="g9063"
           transform="translate(417.8975,472.8745)">
          <path
             d="M 0,0 C 6.701,-2.186 11.993,-0.34 15.699,6.049 8.242,7.817 3.096,5.653 0,0"
             style="fill:#448733;fill-opacity:1;fill-rule:evenodd;stroke:none"
             id="path9065" />
        </g>
        <g
           id="g9067"
           transform="translate(418.8545,473.4346)">
          <path
             d="M 0,0 C -0.335,8.585 -4.686,13.853 -13.557,15.385 -12.423,6.113 -7.771,1.146 0,0"
             style="fill:#448733;fill-opacity:1;fill-rule:evenodd;stroke:none"
             id="path9069" />
        </g>
        <g
           id="g9071"
           transform="translate(89.7739,340.5527)">
          <path
             d="M 0,0 C -0.081,0.204 -1.97,-3.192 -1.697,-4.308 3.88,-27.111 -6.601,-23.83 16.521,-33.27 c 26.692,-10.895 22.169,-2.128 29.48,4.588 22.249,20.446 49.029,33.161 79.481,23.648 25.005,-7.813 31.034,-5.82 54.526,-6.531 3.154,-0.095 70.104,29.75 73.586,31.784 0,0.062 6.848,9.221 1.387,12.026 -19.853,10.197 -17.583,10.16 -33.327,25.203 -5.809,5.549 -26.816,25.464 -33.483,25.811 C 163.452,84.547 159.246,67.287 127.905,64.587 62.08,58.919 84.934,29.383 44.069,30.159 29.069,30.443 -4.633,11.586 0,0 m 70.296,128.119 c 25.122,-7.636 20.873,-2.774 39.228,-21.763 4.048,-4.186 8.753,-7.245 9.447,-13.113 1.577,-13.345 -1.755,-19.379 -17.117,-20.758 -19.986,-1.794 -29.306,6.7 -52.725,4.12 -35.372,-3.895 -17.142,20.475 -3.019,35.491 2.5,2.659 19.964,17.305 24.186,16.023 m 117.007,75.851 c 4.358,-0.318 18.148,-16.741 20.869,-22.167 4.333,-8.644 6.62,-15.096 4.885,-24.963 -0.821,-4.665 -3.565,-7.659 -6.306,-10.123 12.703,-1.703 32.264,-5.585 38.253,-10.695 2.624,-2.239 14.885,-20.81 9.187,-23.128 -23.405,-9.522 -49.284,-5.098 -80.571,-18.828 -6.934,-3.043 -43.46,-11.333 -43.46,3.693 0,4.309 3.885,25.444 6.906,28.869 10.28,11.657 7.321,6.14 14.033,20.993 0.281,0.622 1.149,1.411 1.737,1.813 l 3.627,1.36 1.337,-0.282 c -0.287,0.317 -0.578,0.637 -0.883,0.963 -9.46,10.116 4.167,20.332 6.124,30.464 2.228,11.542 8.464,13.443 15.192,19.559 1.143,1.04 7.472,2.588 9.07,2.472 M 266.215,75.284 c 25.783,30.72 75.054,-26.077 96.378,-26.077 27.031,0 33.328,-11.321 33.328,-34.663 0,-17.901 4.164,-14.588 -20.422,-15.561 -51.316,-2.03 -49.101,4.16 -88.045,35.257 -15.307,12.222 -24.868,0.205 -24.868,27.316 0,14.449 0.661,10.191 3.629,13.728"
             style="fill:#63ac31;fill-opacity:1;fill-rule:evenodd;stroke:none"
             id="path9073" />
        </g>
        <g
           id="g9075"
           transform="translate(435.7578,393.0894)">
          <path
             d="M 0,0 C 0.177,0.168 0.354,0.332 0.533,0.492 0.346,6.761 3.344,11.034 9.904,13.074 9.936,9.622 9.286,6.811 7.99,4.606 11.872,5.475 15.954,4.502 20.253,1.556 13.406,-3.948 6.992,-4.509 0.961,-0.654 0.845,-0.689 0.728,-0.724 0.609,-0.758 l -0.03,0.354 C 0.386,-0.275 0.192,-0.139 0,0"
             style="fill:#63ac31;fill-opacity:1;fill-rule:evenodd;stroke:none"
             id="path9077" />
        </g>
        <g
           id="g9079"
           transform="translate(378.3477,413.5303)">
          <path
             d="M 0,0 C 0,0.244 0.006,0.486 0.014,0.726 -4.639,4.932 -5.647,10.054 -2.577,16.199 -0.065,13.831 1.515,11.415 2.209,8.955 4.27,12.357 7.798,14.63 12.898,15.691 12.131,6.941 8.093,1.924 1.137,0.241 1.082,0.133 1.026,0.023 0.969,-0.085 L 0.692,0.139 C 0.465,0.089 0.233,0.043 0,0"
             style="fill:#63ac31;fill-opacity:1;fill-rule:evenodd;stroke:none"
             id="path9081" />
        </g>
        <g
           id="g9083"
           transform="translate(325.4385,383.2988)">
          <path
             d="m 0,0 c 0.002,0.244 0.006,0.486 0.014,0.725 -4.652,4.206 -5.66,9.329 -2.59,15.474 C -0.064,13.832 1.515,11.416 2.209,8.955 4.27,12.357 7.8,14.63 12.898,15.691 12.131,6.94 8.095,1.924 1.136,0.241 1.083,0.133 1.026,0.023 0.969,-0.085 L 0.692,0.139 C 0.466,0.088 0.235,0.043 0,0"
             style="fill:#63ac31;fill-opacity:1;fill-rule:evenodd;stroke:none"
             id="path9085" />
        </g>
        <g
           id="g9087"
           transform="translate(233.7764,401.8926)">
          <path
             d="M 0,0 C -0.001,0.245 -0.006,0.486 -0.014,0.725 4.639,4.931 5.646,10.054 2.577,16.2 0.065,13.832 -1.515,11.415 -2.208,8.955 -4.27,12.357 -7.798,14.63 -12.899,15.691 -12.131,6.94 -8.094,1.924 -1.137,0.241 -1.082,0.133 -1.025,0.024 -0.968,-0.085 l 0.275,0.224 C -0.465,0.089 -0.233,0.043 0,0"
             style="fill:#63ac31;fill-opacity:1;fill-rule:evenodd;stroke:none"
             id="path9089" />
        </g>
        <g
           id="g9091"
           transform="translate(230.9883,469.4673)">
          <path
             d="m 0,0 c -0.001,0.244 -0.006,0.486 -0.014,0.725 4.652,4.206 5.66,9.328 2.59,15.473 -2.512,-2.367 -4.091,-4.783 -4.784,-7.243 -2.062,3.402 -5.59,5.674 -10.691,6.736 C -12.131,6.94 -8.094,1.923 -1.137,0.24 -1.082,0.132 -1.026,0.023 -0.969,-0.085 l 0.276,0.224 C -0.465,0.088 -0.233,0.043 0,0"
             style="fill:#63ac31;fill-opacity:1;fill-rule:evenodd;stroke:none"
             id="path9093" />
        </g>
        <g
           id="g9095"
           transform="translate(337.8916,460.7188)">
          <path
             d="M 0,0 C 0.222,0.105 0.436,0.214 0.649,0.323 6.442,-2.078 11.503,-0.794 15.741,4.612 12.524,5.868 9.665,6.26 7.145,5.832 9.336,9.152 9.878,13.314 8.651,18.378 1.073,13.935 -1.731,8.138 -0.269,1.13 -0.343,1.035 -0.418,0.937 -0.492,0.838 l 0.32,-0.152 C -0.12,0.458 -0.062,0.229 0,0"
             style="fill:#63ac31;fill-opacity:1;fill-rule:evenodd;stroke:none"
             id="path9097" />
        </g>
        <g
           id="g9099"
           transform="translate(303.2314,445.8677)">
          <path
             d="m 0,0 c 0.054,-0.238 0.111,-0.472 0.174,-0.703 -3.607,-5.132 -3.456,-10.351 0.897,-15.665 1.925,2.866 2.932,5.571 3.064,8.124 2.762,-2.861 6.707,-4.297 11.917,-4.203 C 13.366,-4.083 8.318,-0.084 1.161,0.017 1.083,0.11 1.005,0.205 0.925,0.297 L 0.705,0.019 C 0.472,0.017 0.235,0.01 0,0"
             style="fill:#63ac31;fill-opacity:1;fill-rule:evenodd;stroke:none"
             id="path9101" />
        </g>
        <g
           id="g9103"
           transform="translate(137.5068,446.5874)">
          <path
             d="m 0,0 c -0.227,0.089 -0.452,0.182 -0.672,0.275 -5.599,-2.823 -10.741,-1.917 -15.367,3.161 3.114,1.49 5.937,2.092 8.482,1.852 -2.431,3.149 -3.279,7.26 -2.431,12.401 C -2.102,13.818 1.124,8.244 0.185,1.148 0.266,1.058 0.348,0.967 0.428,0.874 L 0.12,0.698 C 0.085,0.467 0.044,0.235 0,0"
             style="fill:#63ac31;fill-opacity:1;fill-rule:evenodd;stroke:none"
             id="path9105" />
        </g>
        <g
           id="g9107"
           transform="translate(276.0791,534.3213)">
          <path
             d="M 0,0 C 0.205,0.137 0.406,0.275 0.603,0.415 6.731,-1.174 11.609,0.82 15.088,6.82 11.698,7.623 8.784,7.614 6.324,6.833 8.049,10.459 8.007,14.697 6.072,19.587 1.771,16.183 -0.628,12.518 -1.257,8.607 -3.277,12.933 -7.209,15.679 -13.21,16.715 -12.12,7.812 -7.787,2.879 -0.565,1.486 -0.52,1.355 -0.475,1.224 -0.428,1.093 -0.489,0.987 -0.55,0.879 -0.609,0.77 L -0.268,0.662 C -0.184,0.442 -0.094,0.222 0,0"
             style="fill:#63ac31;fill-opacity:1;fill-rule:evenodd;stroke:none"
             id="path9109" />
        </g>
        <g
           id="g9111"
           transform="translate(197.5205,343.0313)">
          <path
             d="m 0,0 c -0.206,-0.137 -0.407,-0.274 -0.604,-0.415 -6.129,1.589 -11.006,-0.404 -14.485,-6.404 3.391,-0.803 6.304,-0.794 8.764,-0.013 -1.725,-3.628 -1.683,-7.864 0.254,-12.754 4.298,3.404 6.699,7.069 7.328,10.978 2.02,-4.326 5.952,-7.072 11.953,-8.106 -1.09,8.903 -5.423,13.836 -12.646,15.229 -0.044,0.131 -0.089,0.261 -0.137,0.393 0.061,0.106 0.123,0.214 0.182,0.323 L 0.268,-0.663 C 0.183,-0.441 0.094,-0.221 0,0"
             style="fill:#63ac31;fill-opacity:1;fill-rule:evenodd;stroke:none"
             id="path9113" />
        </g>
        <g
           id="g9115"
           transform="translate(414.5078,353.3906)">
          <path
             d="m 0,0 c -0.205,-0.136 -0.405,-0.274 -0.603,-0.414 -6.128,1.589 -11.006,-0.405 -14.485,-6.403 3.392,-0.805 6.303,-0.795 8.764,-0.015 -1.725,-3.626 -1.683,-7.863 0.253,-12.752 4.299,3.402 6.7,7.068 7.329,10.977 2.019,-4.326 5.951,-7.071 11.952,-8.108 C 12.121,-7.81 7.788,-2.879 0.565,-1.485 0.52,-1.354 0.476,-1.223 0.429,-1.092 0.49,-0.986 0.551,-0.877 0.61,-0.769 L 0.269,-0.662 C 0.184,-0.44 0.095,-0.222 0,0"
             style="fill:#63ac31;fill-opacity:1;fill-rule:evenodd;stroke:none"
             id="path9117" />
        </g>
        <g
           id="g9119"
           transform="translate(393.0693,147.8994)">
          <path
             d="M 0,0 9.48,4.895 1.373,-3.947 -3.332,-1.171 Z"
             style="fill:#971a1f;fill-opacity:1;fill-rule:evenodd;stroke:none"
             id="path9121" />
        </g>
        <g
           id="g9123"
           transform="translate(379.2959,144.2559)">
          <path
             d="m 0,0 10.895,-2.573 -12.812,-0.34 -1.191,2.437 z"
             style="fill:#971a1f;fill-opacity:1;fill-rule:evenodd;stroke:none"
             id="path9125" />
        </g>
        <g
           id="g9127"
           transform="translate(306.3682,179.6992)">
          <path
             d="m 0,0 1.847,-2.448 4.649,3.856 3.261,0.127 5.923,9.397 -14.967,1.587 -0.794,3.061 22.223,-0.113 -7.144,-19.728 5.67,-16.215 -6.01,-7.481 -22.448,11.225 -23.925,18.819 22.336,7.485 1.134,-2.835 -9.183,-6.237 10.625,-5.836 2.981,1.754 -2.04,6.69 z"
             style="fill:#f2541b;fill-opacity:1;fill-rule:evenodd;stroke:none"
             id="path9129" />
        </g>
        <g
           id="g9131"
           transform="translate(306.3682,179.6992)">
          <path
             d="m 0,0 1.847,-2.448 0.425,-1.162 -2.183,-1.446 -3.911,1.474 -2.04,6.69 z"
             style="fill:#f2541b;fill-opacity:1;fill-rule:evenodd;stroke:none"
             id="path9133" />
        </g>
        <g
           id="g9135"
           transform="translate(302.5459,176.1172)">
          <path
             d="M 0,0 3.911,-1.474 6.095,-0.028 5.669,1.134 3.822,3.582 -2.04,6.69 Z"
             style="fill:#fbc589;fill-opacity:1;fill-rule:evenodd;stroke:none"
             id="path9137" />
        </g>
        <g
           id="g9139"
           transform="translate(307.542,178.1445)">
          <path
             d="m 0,0 -1.174,1.555 -5.862,3.108 1.228,-4.027 c 1.141,-0.723 2.39,-1.163 3.614,-1.163 0.804,0 1.537,0.19 2.194,0.527"
             style="fill:#efb26f;fill-opacity:1;fill-rule:evenodd;stroke:none"
             id="path9141" />
        </g>
        <g
           id="g9143"
           transform="translate(303.2227,195.0225)">
          <path
             d="m 0,0 c 3.975,0 7.198,-3.224 7.198,-7.199 0,-3.976 -2.203,-8.617 -6.18,-8.617 -3.974,0 -8.22,4.641 -8.22,8.617 C -7.202,-3.224 -3.978,0 0,0"
             style="fill:#fbc589;fill-opacity:1;fill-rule:evenodd;stroke:none"
             id="path9145" />
        </g>
        <g
           id="g9147"
           transform="translate(310.4209,187.8232)">
          <path
             d="M 0,0 C -0.383,1.352 -0.369,2.552 -1.358,3.09 -2.041,3.459 -2.512,1.82 -3.286,1.784 -4.779,1.718 -6.32,3.485 -7.65,2.806 -9.346,1.939 -9.692,-0.406 -10.712,-2.013 -13.848,0.946 -14.86,0.613 -13.46,-3.458 -16.819,0.965 -16.499,3.163 -14.113,4.109 -13.939,7.746 0.494,13.349 0,0"
             style="fill:#fbe762;fill-opacity:1;fill-rule:evenodd;stroke:none"
             id="path9149" />
        </g>
        <g
           id="g9151"
           transform="translate(327.0361,159.2236)">
          <path
             d="m 0,0 28.345,-7.28 38.097,-3.176 -1.758,-3.741 -39.457,0.737 -24.263,0.227 -4.697,8.584 z"
             style="fill:#2b4d83;fill-opacity:1;fill-rule:evenodd;stroke:none"
             id="path9153" />
        </g>
        <g
           id="g9155"
           transform="translate(321.0264,151.7422)">
          <path
             d="M 0,0 4.706,-7.567 12.473,-8.474 38.551,5.755 55.048,-8.984 59.072,-7.114 41.102,11.935 14.571,3.147 4.55,5.665 Z"
             style="fill:#3a629f;fill-opacity:1;fill-rule:evenodd;stroke:none"
             id="path9157" />
        </g>
      </g>
    </g>
  </g>
</svg>
